ISO-10303-21;
HEADER;
FILE_DESCRIPTION(('ViewDefinition[DesignTransferView]'),'2;1');
FILE_NAME('/dev/null','2025-12-07T19:28:01-05:00',(''),(''),'IfcOpenShell 0.8.4','IfcOpenShell 0.8.4','Nobody');
FILE_SCHEMA(('IFC4'));
ENDSEC;
DATA;
#1=IFCPROJECT('06$mv0gRjBQeWm1xjuZRge',$,'Building',$,$,$,$,$,#5);
#2=IFCSIUNIT(*,.LENGTHUNIT.,$,.METRE.);
#3=IFCSIUNIT(*,.AREAUNIT.,$,.SQUARE_METRE.);
#4=IFCSIUNIT(*,.VOLUMEUNIT.,$,.CUBIC_METRE.);
#5=IFCUNITASSIGNMENT((#2,#3,#4));
#6=IFCCARTESIANPOINT((0.,0.,0.));
#7=IFCDIRECTION((0.,0.,1.));
#8=IFCDIRECTION((1.,0.,0.));
#9=IFCAXIS2PLACEMENT3D(#6,#7,#8);
#10=IFCGEOMETRICREPRESENTATIONCONTEXT($,'Model',3,1.E-05,#9,$);
#11=IFCCARTESIANPOINT((0.,0.,0.));
#12=IFCDIRECTION((0.,0.,1.));
#13=IFCDIRECTION((1.,0.,0.));
#14=IFCAXIS2PLACEMENT3D(#11,#12,#13);
#15=IFCLOCALPLACEMENT($,#14);
#16=IFCSITE('0rQbX8fQnD8OR7Ss2oOmiA',$,'Site',$,$,#15,$,$,.ELEMENT.,$,$,$,$,$);
#17=IFCCARTESIANPOINT((0.,0.,0.));
#18=IFCDIRECTION((0.,0.,1.));
#19=IFCDIRECTION((1.,0.,0.));
#20=IFCAXIS2PLACEMENT3D(#17,#18,#19);
#21=IFCLOCALPLACEMENT(#15,#20);
#22=IFCBUILDING('3xZJQleVr3XR0fjsovZJri',$,'Building',$,$,#21,$,$,.ELEMENT.,$,$,$);
#23=IFCRELAGGREGATES('32Wto0Lnz9BPCcahbUJi7a',$,$,$,#1,(#16));
#24=IFCRELAGGREGATES('02zzJITZP58AVXnAf7Tyk_',$,$,$,#16,(#22));
#25=IFCCARTESIANPOINT((0.,0.,0.));
#26=IFCDIRECTION((0.,0.,1.));
#27=IFCDIRECTION((1.,0.,0.));
#28=IFCAXIS2PLACEMENT3D(#25,#26,#27);
#29=IFCLOCALPLACEMENT(#21,#28);
#30=IFCBUILDINGSTOREY('07YCjjsr15vuXIPD6bFjZD',$,'Ground',$,$,#29,$,$,.ELEMENT.,0.);
#31=IFCRELAGGREGATES('0fadv23LL9$8z85WEcnR8a',$,$,$,#22,(#30));
#32=IFCCARTESIANPOINT((0.,0.,0.));
#33=IFCCARTESIANPOINT((7.07106781186548,0.,0.));
#34=IFCCARTESIANPOINT((7.07106781186548,0.2,0.));
#35=IFCCARTESIANPOINT((0.,0.2,0.));
#36=IFCCARTESIANPOINT((0.,0.,0.));
#37=IFCPOLYLINE((#32,#33,#34,#35,#36));
#38=IFCARBITRARYCLOSEDPROFILEDEF(.AREA.,$,#37);
#39=IFCDIRECTION((0.,0.,1.));
#40=IFCEXTRUDEDAREASOLID(#38,$,#39,3.5);
#41=IFCSHAPEREPRESENTATION(#10,'Body','SweptSolid',(#40));
#42=IFCPRODUCTDEFINITIONSHAPE($,$,(#41));
#43=IFCCARTESIANPOINT((0.,0.,0.));
#44=IFCDIRECTION((0.,0.,1.));
#45=IFCDIRECTION((1.,0.,0.));
#46=IFCAXIS2PLACEMENT3D(#43,#44,#45);
#47=IFCLOCALPLACEMENT(#29,#46);
#48=IFCWALL('1h1ElVLET9Jw01RmmS9sBp',$,'Reception - South Wall',$,$,#47,#42,$,$);
#49=IFCCARTESIANPOINT((6.87106781186548,0.,0.));
#50=IFCCARTESIANPOINT((7.07106781186548,0.,0.));
#51=IFCCARTESIANPOINT((7.07106781186548,7.07106781186548,0.));
#52=IFCCARTESIANPOINT((6.87106781186548,7.07106781186548,0.));
#53=IFCCARTESIANPOINT((6.87106781186548,0.,0.));
#54=IFCPOLYLINE((#49,#50,#51,#52,#53));
#55=IFCARBITRARYCLOSEDPROFILEDEF(.AREA.,$,#54);
#56=IFCDIRECTION((0.,0.,1.));
#57=IFCEXTRUDEDAREASOLID(#55,$,#56,3.5);
#58=IFCSHAPEREPRESENTATION(#10,'Body','SweptSolid',(#57));
#59=IFCPRODUCTDEFINITIONSHAPE($,$,(#58));
#60=IFCCARTESIANPOINT((0.,0.,0.));
#61=IFCDIRECTION((0.,0.,1.));
#62=IFCDIRECTION((1.,0.,0.));
#63=IFCAXIS2PLACEMENT3D(#60,#61,#62);
#64=IFCLOCALPLACEMENT(#29,#63);
#65=IFCWALL('0$R2lrzHr7yu_GMqx8Um3B',$,'Wall between Reception and Hallway',$,$,#64,#59,$,$);
#66=IFCCARTESIANPOINT((0.,6.87106781186548,0.));
#67=IFCCARTESIANPOINT((7.07106781186548,6.87106781186548,0.));
#68=IFCCARTESIANPOINT((7.07106781186548,7.07106781186548,0.));
#69=IFCCARTESIANPOINT((0.,7.07106781186548,0.));
#70=IFCCARTESIANPOINT((0.,6.87106781186548,0.));
#71=IFCPOLYLINE((#66,#67,#68,#69,#70));
#72=IFCARBITRARYCLOSEDPROFILEDEF(.AREA.,$,#71);
#73=IFCDIRECTION((0.,0.,1.));
#74=IFCEXTRUDEDAREASOLID(#72,$,#73,3.5);
#75=IFCSHAPEREPRESENTATION(#10,'Body','SweptSolid',(#74));
#76=IFCPRODUCTDEFINITIONSHAPE($,$,(#75));
#77=IFCCARTESIANPOINT((0.,0.,0.));
#78=IFCDIRECTION((0.,0.,1.));
#79=IFCDIRECTION((1.,0.,0.));
#80=IFCAXIS2PLACEMENT3D(#77,#78,#79);
#81=IFCLOCALPLACEMENT(#29,#80);
#82=IFCWALL('14cpdfhGTDLA$ay74YMJJC',$,'Reception - North Wall',$,$,#81,#76,$,$);
#83=IFCCARTESIANPOINT((0.,0.,0.));
#84=IFCCARTESIANPOINT((0.2,0.,0.));
#85=IFCCARTESIANPOINT((0.2,7.07106781186548,0.));
#86=IFCCARTESIANPOINT((0.,7.07106781186548,0.));
#87=IFCCARTESIANPOINT((0.,0.,0.));
#88=IFCPOLYLINE((#83,#84,#85,#86,#87));
#89=IFCARBITRARYCLOSEDPROFILEDEF(.AREA.,$,#88);
#90=IFCDIRECTION((0.,0.,1.));
#91=IFCEXTRUDEDAREASOLID(#89,$,#90,3.5);
#92=IFCSHAPEREPRESENTATION(#10,'Body','SweptSolid',(#91));
#93=IFCPRODUCTDEFINITIONSHAPE($,$,(#92));
#94=IFCCARTESIANPOINT((0.,0.,0.));
#95=IFCDIRECTION((0.,0.,1.));
#96=IFCDIRECTION((1.,0.,0.));
#97=IFCAXIS2PLACEMENT3D(#94,#95,#96);
#98=IFCLOCALPLACEMENT(#29,#97);
#99=IFCWALL('2lMLVcqO58a9VnIe$jzWNK',$,'Reception - West Wall',$,$,#98,#93,$,$);
#100=IFCCARTESIANPOINT((5.,0.,0.));
#101=IFCCARTESIANPOINT((7.,0.,0.));
#102=IFCCARTESIANPOINT((7.,0.2,0.));
#103=IFCCARTESIANPOINT((5.,0.2,0.));
#104=IFCCARTESIANPOINT((5.,0.,0.));
#105=IFCPOLYLINE((#100,#101,#102,#103,#104));
#106=IFCARBITRARYCLOSEDPROFILEDEF(.AREA.,$,#105);
#107=IFCDIRECTION((0.,0.,1.));
#108=IFCEXTRUDEDAREASOLID(#106,$,#107,3.5);
#109=IFCSHAPEREPRESENTATION(#10,'Body','SweptSolid',(#108));
#110=IFCPRODUCTDEFINITIONSHAPE($,$,(#109));
#111=IFCCARTESIANPOINT((0.,0.,0.));
#112=IFCDIRECTION((0.,0.,1.));
#113=IFCDIRECTION((1.,0.,0.));
#114=IFCAXIS2PLACEMENT3D(#111,#112,#113);
#115=IFCLOCALPLACEMENT(#29,#114);
#116=IFCWALL('1rYSEKFUDFux$rnnH4sdSG',$,'Hallway - South Wall',$,$,#115,#110,$,$);
#117=IFCCARTESIANPOINT((6.8,0.,0.));
#118=IFCCARTESIANPOINT((7.,0.,0.));
#119=IFCCARTESIANPOINT((7.,10.,0.));
#120=IFCCARTESIANPOINT((6.8,10.,0.));
#121=IFCCARTESIANPOINT((6.8,0.,0.));
#122=IFCPOLYLINE((#117,#118,#119,#120,#121));
#123=IFCARBITRARYCLOSEDPROFILEDEF(.AREA.,$,#122);
#124=IFCDIRECTION((0.,0.,1.));
#125=IFCEXTRUDEDAREASOLID(#123,$,#124,3.5);
#126=IFCSHAPEREPRESENTATION(#10,'Body','SweptSolid',(#125));
#127=IFCPRODUCTDEFINITIONSHAPE($,$,(#126));
#128=IFCCARTESIANPOINT((0.,0.,0.));
#129=IFCDIRECTION((0.,0.,1.));
#130=IFCDIRECTION((1.,0.,0.));
#131=IFCAXIS2PLACEMENT3D(#128,#129,#130);
#132=IFCLOCALPLACEMENT(#29,#131);
#133=IFCWALL('04TfbTxVnBYvCD1OoVQUGZ',$,'Hallway - East Wall',$,$,#132,#127,$,$);
#134=IFCCARTESIANPOINT((5.,9.8,0.));
#135=IFCCARTESIANPOINT((7.,9.8,0.));
#136=IFCCARTESIANPOINT((7.,10.,0.));
#137=IFCCARTESIANPOINT((5.,10.,0.));
#138=IFCCARTESIANPOINT((5.,9.8,0.));
#139=IFCPOLYLINE((#134,#135,#136,#137,#138));
#140=IFCARBITRARYCLOSEDPROFILEDEF(.AREA.,$,#139);
#141=IFCDIRECTION((0.,0.,1.));
#142=IFCEXTRUDEDAREASOLID(#140,$,#141,3.5);
#143=IFCSHAPEREPRESENTATION(#10,'Body','SweptSolid',(#142));
#144=IFCPRODUCTDEFINITIONSHAPE($,$,(#143));
#145=IFCCARTESIANPOINT((0.,0.,0.));
#146=IFCDIRECTION((0.,0.,1.));
#147=IFCDIRECTION((1.,0.,0.));
#148=IFCAXIS2PLACEMENT3D(#145,#146,#147);
#149=IFCLOCALPLACEMENT(#29,#148);
#150=IFCWALL('1_bQCFtmD7IO7WmMRkkFPC',$,'Hallway - North Wall',$,$,#149,#144,$,$);
#151=IFCCARTESIANPOINT((0.2,0.2,0.));
#152=IFCCARTESIANPOINT((6.87106781186548,0.2,0.));
#153=IFCCARTESIANPOINT((6.87106781186548,6.87106781186548,0.));
#154=IFCCARTESIANPOINT((0.2,6.87106781186548,0.));
#155=IFCCARTESIANPOINT((0.2,0.2,0.));
#156=IFCPOLYLINE((#151,#152,#153,#154,#155));
#157=IFCARBITRARYCLOSEDPROFILEDEF(.AREA.,$,#156);
#158=IFCDIRECTION((0.,0.,1.));
#159=IFCEXTRUDEDAREASOLID(#157,$,#158,0.2);
#160=IFCSHAPEREPRESENTATION(#10,'Body','SweptSolid',(#159));
#161=IFCPRODUCTDEFINITIONSHAPE($,$,(#160));
#162=IFCCARTESIANPOINT((0.,0.,0.));
#163=IFCDIRECTION((0.,0.,1.));
#164=IFCDIRECTION((1.,0.,0.));
#165=IFCAXIS2PLACEMENT3D(#162,#163,#164);
#166=IFCLOCALPLACEMENT(#29,#165);
#167=IFCSLAB('1EtjeTLLD4gfVOdQ5vV9Bm',$,'Reception - Floor',$,$,#166,#161,$,.FLOOR.);
#168=IFCCARTESIANPOINT((5.2,0.2,0.));
#169=IFCCARTESIANPOINT((6.8,0.2,0.));
#170=IFCCARTESIANPOINT((6.8,9.8,0.));
#171=IFCCARTESIANPOINT((5.2,9.8,0.));
#172=IFCCARTESIANPOINT((5.2,0.2,0.));
#173=IFCPOLYLINE((#168,#169,#170,#171,#172));
#174=IFCARBITRARYCLOSEDPROFILEDEF(.AREA.,$,#173);
#175=IFCDIRECTION((0.,0.,1.));
#176=IFCEXTRUDEDAREASOLID(#174,$,#175,0.2);
#177=IFCSHAPEREPRESENTATION(#10,'Body','SweptSolid',(#176));
#178=IFCPRODUCTDEFINITIONSHAPE($,$,(#177));
#179=IFCCARTESIANPOINT((0.,0.,0.));
#180=IFCDIRECTION((0.,0.,1.));
#181=IFCDIRECTION((1.,0.,0.));
#182=IFCAXIS2PLACEMENT3D(#179,#180,#181);
#183=IFCLOCALPLACEMENT(#29,#182);
#184=IFCSLAB('1D1JPEXtX4lvs2R7ZNgBg3',$,'Hallway - Floor',$,$,#183,#178,$,.FLOOR.);
#185=IFCCARTESIANPOINT((6.87106781186548,2.93553390593274,0.));
#186=IFCCARTESIANPOINT((7.07106781186548,2.93553390593274,0.));
#187=IFCCARTESIANPOINT((7.07106781186548,4.13553390593274,0.));
#188=IFCCARTESIANPOINT((6.87106781186548,4.13553390593274,0.));
#189=IFCCARTESIANPOINT((6.87106781186548,2.93553390593274,0.));
#190=IFCPOLYLINE((#185,#186,#187,#188,#189));
#191=IFCARBITRARYCLOSEDPROFILEDEF(.AREA.,$,#190);
#192=IFCDIRECTION((0.,0.,1.));
#193=IFCEXTRUDEDAREASOLID(#191,$,#192,2.1);
#194=IFCSHAPEREPRESENTATION(#10,'Body','SweptSolid',(#193));
#195=IFCPRODUCTDEFINITIONSHAPE($,$,(#194));
#196=IFCCARTESIANPOINT((0.,0.,0.));
#197=IFCDIRECTION((0.,0.,1.));
#198=IFCDIRECTION((1.,0.,0.));
#199=IFCAXIS2PLACEMENT3D(#196,#197,#198);
#200=IFCLOCALPLACEMENT(#29,#199);
#201=IFCOPENINGELEMENT('0KP9WdvrrENvbvISazpgVu',$,'Opening for door from Reception to Hallway',$,$,#200,#195,$,$);
#202=IFCRELVOIDSELEMENT('3JuV6vDO53he43ggG_4bl9',$,'Wall Opening',$,#65,#201);
#203=IFCCARTESIANPOINT((6.94606781186547,2.93553390593274,0.));
#204=IFCCARTESIANPOINT((6.99606781186548,2.93553390593274,0.));
#205=IFCCARTESIANPOINT((6.99606781186548,4.13553390593274,0.));
#206=IFCCARTESIANPOINT((6.94606781186547,4.13553390593274,0.));
#207=IFCCARTESIANPOINT((6.94606781186547,2.93553390593274,0.));
#208=IFCPOLYLINE((#203,#204,#205,#206,#207));
#209=IFCARBITRARYCLOSEDPROFILEDEF(.AREA.,$,#208);
#210=IFCDIRECTION((0.,0.,1.));
#211=IFCEXTRUDEDAREASOLID(#209,$,#210,2.1);
#212=IFCSHAPEREPRESENTATION(#10,'Body','SweptSolid',(#211));
#213=IFCPRODUCTDEFINITIONSHAPE($,$,(#212));
#214=IFCCARTESIANPOINT((0.,0.,0.));
#215=IFCDIRECTION((0.,0.,1.));
#216=IFCDIRECTION((1.,0.,0.));
#217=IFCAXIS2PLACEMENT3D(#214,#215,#216);
#218=IFCLOCALPLACEMENT(#29,#217);
#219=IFCDOOR('0VTUgAbN9CPRMdfLQizc_g',$,'Door from Reception to Hallway',$,$,#218,#213,$,2.1,1.2,$,$,$);
#220=IFCRELFILLSELEMENT('18aeuEd5DEU9oEkpQrTyDk',$,'Door Fill',$,#201,#219);
#221=IFCRELCONTAINEDINSPATIALSTRUCTURE('0jGE0Im4n7SxneIASJGt0q',$,$,$,(#48,#65,#82,#99,#116,#133,#150,#167,#184,#201,#219),#30);
ENDSEC;
END-ISO-10303-21;
