ISO-10303-21;
HEADER;
FILE_DESCRIPTION (('ViewDefinition [CoordinationView]'), '2;1');
FILE_NAME ('angle_collection_table.ifc', '2016-07-05T11:39:57', ('Supplier'), ('BIMobject'), 'IFC Engine DLL 2015', 'BIMobject-Lena', 'Full Scope');
FILE_SCHEMA (('IFC2X3'));
ENDSEC;
DATA;
#1 = IFCPROJECT('1vXuTOFLLCPPTJwRgr3DVx', #2, 'BIMobject Library', $, $, $, $, (#20), #7);
#2 = IFCOWNERHISTORY(#3, #6, $, .ADDED., $, $, $, 1467718797);
#3 = IFCPERSONANDORGANIZATION(#4, #5, $);
#4 = IFCPERSON($, 'Maros', 'J\X2\00E1\X0\nos', $, $, $, $, $);
#5 = IFCORGANIZATION($, 'BIMobject', 'BIMobject\X2\00AE\X0\ Corporation', $, $);
#6 = IFCAPPLICATION(#5, '0.10', 'BIMobject-Lena', 'LTC 110');
#7 = IFCUNITASSIGNMENT((#8, #9, #10, #11, #15, #16, #17, #18, #19));
#8 = IFCSIUNIT(*, .LENGTHUNIT., $, .METRE.);
#9 = IFCSIUNIT(*, .AREAUNIT., $, .SQUARE_METRE.);
#10 = IFCSIUNIT(*, .VOLUMEUNIT., $, .CUBIC_METRE.);
#11 = IFCCONVERSIONBASEDUNIT(#12, .PLANEANGLEUNIT., 'DEGREE', #13);
#12 = IFCDIMENSIONALEXPONENTS(0, 0, 0, 0, 0, 0, 0);
#13 = IFCMEASUREWITHUNIT(IFCPLANEANGLEMEASURE(1.745E-2), #14);
#14 = IFCSIUNIT(*, .PLANEANGLEUNIT., $, .RADIAN.);
#15 = IFCSIUNIT(*, .SOLIDANGLEUNIT., $, .STERADIAN.);
#16 = IFCSIUNIT(*, .MASSUNIT., $, .GRAM.);
#17 = IFCSIUNIT(*, .TIMEUNIT., $, .SECOND.);
#18 = IFCSIUNIT(*, .THERMODYNAMICTEMPERATUREUNIT., $, .DEGREE_CELSIUS.);
#19 = IFCSIUNIT(*, .LUMINOUSINTENSITYUNIT., $, .LUMEN.);
#20 = IFCGEOMETRICREPRESENTATIONCONTEXT($, 'Model', 3, 1.E-5, #21, $);
#21 = IFCAXIS2PLACEMENT3D(#22, $, $);
#22 = IFCCARTESIANPOINT((0., 0., 0.));
#23 = IFCSITE('36MhdyFQnEcgFDskHpuJYO', #2, $, $, $, #24, $, $, .ELEMENT., $, $, $, $, $);
#24 = IFCLOCALPLACEMENT($, #25);
#25 = IFCAXIS2PLACEMENT3D(#26, #27, #28);
#26 = IFCCARTESIANPOINT((0., 0., 0.));
#27 = IFCDIRECTION((0., 0., 1.));
#28 = IFCDIRECTION((1., 0., 0.));
#29 = IFCBUILDING('0NIuDGGqrAZAA9axMYYOLJ', #2, $, $, $, #30, $, $, .ELEMENT., $, $, $);
#30 = IFCLOCALPLACEMENT(#24, #31);
#31 = IFCAXIS2PLACEMENT3D(#32, #33, #34);
#32 = IFCCARTESIANPOINT((0., 0., 0.));
#33 = IFCDIRECTION((0., 0., 1.));
#34 = IFCDIRECTION((1., 0., 0.));
#35 = IFCBUILDINGSTOREY('0GOLT_KUDA7BfDOkWm_qks', #2, $, $, $, #36, $, $, .ELEMENT., 0.);
#36 = IFCLOCALPLACEMENT(#30, #37);
#37 = IFCAXIS2PLACEMENT3D(#38, #39, #40);
#38 = IFCCARTESIANPOINT((0., 0., 0.));
#39 = IFCDIRECTION((0., 0., 1.));
#40 = IFCDIRECTION((1., 0., 0.));
#41 = IFCRELAGGREGATES('1JU4bzSnz31PZaKRzxcxGQ', #2, $, $, #29, (#35));
#42 = IFCRELAGGREGATES('2eQqh0lln9Mxt7rwXDZ0kb', #2, $, $, #23, (#29));
#43 = IFCRELAGGREGATES('1l9Xry4490DPmg8XrnY_fd', #2, $, $, #1, (#23));
#44 = IFCRELCONTAINEDINSPATIALSTRUCTURE('2JT4CDAdX5yOj5TCGQ6izL', #2, $, $, (#45), #35);
#45 = IFCFURNISHINGELEMENT('0NBfqbaq9BXukGIQ8Pw2aF', #2, 'Angle collection - Table', $, $, #46, #51, $);
#46 = IFCLOCALPLACEMENT(#36, #47);
#47 = IFCAXIS2PLACEMENT3D(#48, #49, #50);
#48 = IFCCARTESIANPOINT((0., 0., 0.));
#49 = IFCDIRECTION((0., 0., 1.));
#50 = IFCDIRECTION((1., 0., 0.));
#51 = IFCPRODUCTDEFINITIONSHAPE($, $, (#108, #111));
#52 = IFCFURNITURETYPE('1_$iT90oHEThBJknK2VtB$', #2, 'Angle collection - Table', $, $, $, $, $, $, .NOTDEFINED.);
#53 = IFCRELDEFINESBYTYPE('17cf7ueKr01QW1TLX6wqfa', #2, $, $, (#45), #52);
#54 = IFCPROPERTYSET('1NJ_QvDub9sOwyWbg7FVCm', #2, 'ePset_BIMobject_Lena', $, (#55));
#55 = IFCPROPERTYSINGLEVALUE('LOD', 'bos_p1', IFCLABEL('300'), $);
#56 = IFCRELDEFINESBYPROPERTIES('2AfHQYTR94Gx_9xn89Vecd', #2, $, $, (#45), #54);
#57 = IFCPROPERTYSET('1wbmDG4$rE4wA8$1lhnL0e', #2, 'ePset_BIMobject_BO', $, (#58, #59, #60, #61, #62, #63, #64, #65, #66, #67, #68, #69, #70, #71, #72, #73, #74, #75, #76, #77, #78, #79, #80, #81, #82, #83, #84, #85, #86, #87, #88, #89, #90, #91, #92, #93, #94, #95, #96, #97, #98, #99, #100, #101, #102, #103, #104, #105, #106));
#58 = IFCPROPERTYSINGLEVALUE('ProductName (BO_prodinfo)', 'Name of the object', IFCTEXT('Angle collection - Table'), $);
#59 = IFCPROPERTYSINGLEVALUE('SKU (BO_prodsku)', 'Product SKU', IFCTEXT('AngleTable'), $);
#60 = IFCPROPERTYSINGLEVALUE('ManufacturName (BO_Manufac)', 'Brand:', IFCTEXT('Calma'), $);
#61 = IFCPROPERTYSINGLEVALUE('ProductFamily (BO_prodfam)', 'Product family:', IFCTEXT(''), $);
#62 = IFCPROPERTYSINGLEVALUE('ProductGroup (BO_prodgroup)', 'Product group:', IFCTEXT(''), $);
#63 = IFCPROPERTYSINGLEVALUE('ManufacturCountry (BO_mancont)', 'Manufacturer country:', IFCTEXT(''), $);
#64 = IFCPROPERTYSINGLEVALUE('DesignCountry (BO_designcont)', 'Design country:', IFCTEXT(''), $);
#65 = IFCPROPERTYSINGLEVALUE('PublishDate (BO_publisdat)', 'Date of publishing:', IFCTEXT(''), $);
#66 = IFCPROPERTYSINGLEVALUE('EditionNumber (BO_edinum)', 'Edition number:', IFCINTEGER(1), $);
#67 = IFCPROPERTYSINGLEVALUE('Width (BO_width)', 'Width (mm):', IFCREAL(0.), $);
#68 = IFCPROPERTYSINGLEVALUE('Height (BO_height)', 'Height (mm):', IFCREAL(0.), $);
#69 = IFCPROPERTYSINGLEVALUE('Depth (BO_depth)', 'Depth (mm):', IFCREAL(0.), $);
#70 = IFCPROPERTYSINGLEVALUE('Weight (BO_weight)', 'Weight Net (Kg):', IFCREAL(0.), $);
#71 = IFCPROPERTYSINGLEVALUE('ProductGuid (BO_productguid)', 'Unique identifier of the object', IFCTEXT('314898a9-9ccd-4719-864a-b092838a6ab5'), $);
#72 = IFCPROPERTYSINGLEVALUE('BO_links', 'Links', IFCTEXT(''), $);
#73 = IFCPROPERTYSINGLEVALUE('QR (BO_boqrurl)', 'BIMobject QR code url:', IFCTEXT('http://bimobject.com/calma/product/AngleTable'), $);
#74 = IFCPROPERTYSINGLEVALUE('ProductDataUrl (BO_prodaturl)', 'Product data url:', IFCTEXT('bimobject.com/calma/product/AngleTable'), $);
#75 = IFCPROPERTYSINGLEVALUE('InstallationInstructions (BO_montins)', 'Installation instructions:', IFCTEXT(''), $);
#76 = IFCPROPERTYSINGLEVALUE('ProductCertification (BO_prodcert)', 'Product certification:', IFCTEXT(''), $);
#77 = IFCPROPERTYSINGLEVALUE('TechnicalDescription (BO_techcert)', 'Technical description:', IFCTEXT(''), $);
#78 = IFCPROPERTYSINGLEVALUE('InstructionVideo (BO_youtube)', 'Instruction video:', IFCTEXT(''), $);
#79 = IFCPROPERTYSINGLEVALUE('EanCode (BO_ean)', 'EAN code:', IFCTEXT(''), $);
#80 = IFCPROPERTYSINGLEVALUE('BO_real', 'Related', IFCTEXT(''), $);
#81 = IFCPROPERTYSINGLEVALUE('MaterialMain (BO_mainmat)', 'Material main:', IFCTEXT(''), $);
#82 = IFCPROPERTYSINGLEVALUE('MaterialSecondary (BO_secmat)', 'Material secondary:', IFCTEXT(''), $);
#83 = IFCPROPERTYSINGLEVALUE('BO_classific', 'Classifications', IFCTEXT(''), $);
#84 = IFCPROPERTYSINGLEVALUE('BimObjectCategory (BO_bocat)', 'BIMobject Category:', IFCTEXT(''), $);
#85 = IFCPROPERTYSINGLEVALUE('IfcClassification (BO_ifcclas)', 'IFC Classification:', IFCTEXT('Furniture'), $);
#86 = IFCPROPERTYSINGLEVALUE('UnspcCode (BO_unspc)', 'UNSPC code:', IFCTEXT(''), $);
#87 = IFCPROPERTYSINGLEVALUE('Uniclass14Code (BO_uniclass_1_4_code)', 'Uniclass 1.4 Code', IFCTEXT(''), $);
#88 = IFCPROPERTYSINGLEVALUE('Uniclass14Description (BO_uniclass_1_4_desc)', 'Uniclass 1.4 Description', IFCTEXT(''), $);
#89 = IFCPROPERTYSINGLEVALUE('Uniclass20Code (BO_uniclass_2_0_code)', 'Uniclass 2.0 Code', IFCTEXT(''), $);
#90 = IFCPROPERTYSINGLEVALUE('Uniclass20Description (BO_uniclass_2_0_desc)', 'Uniclass 2.0 Description', IFCTEXT(''), $);
#91 = IFCPROPERTYSINGLEVALUE('Uniclass2015Code (BO_uniclass2015_code)', 'Uniclass 2015 Code', IFCTEXT(''), $);
#92 = IFCPROPERTYSINGLEVALUE('Uniclass2015Description  (BO_uniclass2015_desc)', 'Uniclass 2015 Description', IFCTEXT(''), $);
#93 = IFCPROPERTYSINGLEVALUE('NBSReference (BO_nbs_ref)', 'NBS Reference', IFCTEXT(''), $);
#94 = IFCPROPERTYSINGLEVALUE('NBSReferenceDescription (BO_nbs_desc)', 'NBS Reference Description', IFCTEXT(''), $);
#95 = IFCPROPERTYSINGLEVALUE('OmniClassCode (BO_omniclass_code)', 'OmniClass Code', IFCTEXT(''), $);
#96 = IFCPROPERTYSINGLEVALUE('OmniClassDescription (BO_omniclass_name)', 'OmniClass Description', IFCTEXT(''), $);
#97 = IFCPROPERTYSINGLEVALUE('COBIeTypeCategory (BO_cobie_type_cat)', 'COBIe Type Category', IFCTEXT(''), $);
#98 = IFCPROPERTYSINGLEVALUE('BO_regions', 'Regions', IFCTEXT(''), $);
#99 = IFCPROPERTYSINGLEVALUE('RegionEurope (BO_europe)', 'Region Europe', IFCTEXT('All'), $);
#100 = IFCPROPERTYSINGLEVALUE('RegionNorthAmerica (BO_northamerica)', 'Region North America', IFCTEXT('All'), $);
#101 = IFCPROPERTYSINGLEVALUE('RegionSouthAmerica (BO_southamerica)', 'Region South America', IFCTEXT('All'), $);
#102 = IFCPROPERTYSINGLEVALUE('RegionMiddleEast (BO_middleeast)', 'Region Middle East', IFCTEXT('All'), $);
#103 = IFCPROPERTYSINGLEVALUE('RegionAsia (BO_asia)', 'Region Asia', IFCTEXT('All'), $);
#104 = IFCPROPERTYSINGLEVALUE('RegionOceania (BO_oceania)', 'Region Oceania', IFCTEXT('All'), $);
#105 = IFCPROPERTYSINGLEVALUE('RegionAfrica (BO_africa)', 'Region Africa', IFCTEXT('All'), $);
#106 = IFCPROPERTYSINGLEVALUE('RegionAntarctica (BO_antarctica)', 'Region Antarctica', IFCTEXT('All'), $);
#107 = IFCRELDEFINESBYPROPERTIES('2l4PCazzX40QcgQFybyMtX', #2, $, $, (#45), #57);
#108 = IFCSHAPEREPRESENTATION(#20, 'Box', 'BoundingBox', (#109));
#109 = IFCBOUNDINGBOX(#110, 3.6E-3, 1.E-3, 7.22000000270337E-4);
#110 = IFCCARTESIANPOINT((-1.8E-3, -5.E-4, -2.70337409347121E-13));
#111 = IFCSHAPEREPRESENTATION(#20, 'Body', 'Brep', (#297));
#112 = IFCCLOSEDSHELL((#118, #122, #126, #130, #134, #138, #142, #147, #151, #154, #158, #161, #164, #167, #170, #175, #179, #184, #187, #191, #194, #197, #201, #204, #207, #210, #213, #216, #219, #222, #225, #229, #234, #238, #243, #246, #250, #253, #256, #260, #263, #266, #269, #272, #275, #278, #281, #284, #287, #290, #293, #296));
#113 = IFCPOLYLOOP((#114, #115, #116));
#114 = IFCCARTESIANPOINT((-1.8, -5.E-1, 7.22E-1));
#115 = IFCCARTESIANPOINT((-1.8, 5.E-1, 7.22E-1));
#116 = IFCCARTESIANPOINT((-1.8, 5.E-1, 7.1E-1));
#117 = IFCFACEOUTERBOUND(#113, .T.);
#118 = IFCFACE((#117));
#119 = IFCPOLYLOOP((#116, #120, #114));
#120 = IFCCARTESIANPOINT((-1.8, -5.E-1, 7.1E-1));
#121 = IFCFACEOUTERBOUND(#119, .T.);
#122 = IFCFACE((#121));
#123 = IFCPOLYLOOP((#115, #124, #116));
#124 = IFCCARTESIANPOINT((-1.77543505859375, 5.E-1, 7.1E-1));
#125 = IFCFACEOUTERBOUND(#123, .T.);
#126 = IFCFACE((#125));
#127 = IFCPOLYLOOP((#128, #124, #115));
#128 = IFCCARTESIANPOINT((1.77543505859375, 5.E-1, 7.1E-1));
#129 = IFCFACEOUTERBOUND(#127, .T.);
#130 = IFCFACE((#129));
#131 = IFCPOLYLOOP((#115, #132, #128));
#132 = IFCCARTESIANPOINT((1.8, 5.E-1, 7.22E-1));
#133 = IFCFACEOUTERBOUND(#131, .T.);
#134 = IFCFACE((#133));
#135 = IFCPOLYLOOP((#136, #128, #132));
#136 = IFCCARTESIANPOINT((1.8, 5.E-1, 7.1E-1));
#137 = IFCFACEOUTERBOUND(#135, .T.);
#138 = IFCFACE((#137));
#139 = IFCPOLYLOOP((#140, #120, #116));
#140 = IFCCARTESIANPOINT((-1.27614636230469, 0., 7.1E-1));
#141 = IFCFACEOUTERBOUND(#139, .T.);
#142 = IFCFACE((#141));
#143 = IFCPOLYLOOP((#144, #114, #145));
#144 = IFCCARTESIANPOINT((1.8, -5.E-1, 7.22E-1));
#145 = IFCCARTESIANPOINT((-1.77543505859375, -5.E-1, 7.1E-1));
#146 = IFCFACEOUTERBOUND(#143, .T.);
#147 = IFCFACE((#146));
#148 = IFCPOLYLOOP((#145, #149, #144));
#149 = IFCCARTESIANPOINT((1.77543505859375, -5.E-1, 7.1E-1));
#150 = IFCFACEOUTERBOUND(#148, .T.);
#151 = IFCFACE((#150));
#152 = IFCPOLYLOOP((#120, #145, #114));
#153 = IFCFACEOUTERBOUND(#152, .T.);
#154 = IFCFACE((#153));
#155 = IFCPOLYLOOP((#144, #149, #156));
#156 = IFCCARTESIANPOINT((1.8, -5.E-1, 7.1E-1));
#157 = IFCFACEOUTERBOUND(#155, .T.);
#158 = IFCFACE((#157));
#159 = IFCPOLYLOOP((#132, #115, #114));
#160 = IFCFACEOUTERBOUND(#159, .T.);
#161 = IFCFACE((#160));
#162 = IFCPOLYLOOP((#114, #144, #132));
#163 = IFCFACEOUTERBOUND(#162, .T.);
#164 = IFCFACE((#163));
#165 = IFCPOLYLOOP((#144, #156, #136));
#166 = IFCFACEOUTERBOUND(#165, .T.);
#167 = IFCFACE((#166));
#168 = IFCPOLYLOOP((#136, #132, #144));
#169 = IFCFACEOUTERBOUND(#168, .T.);
#170 = IFCFACE((#169));
#171 = IFCPOLYLOOP((#172, #173, #145));
#172 = IFCCARTESIANPOINT((-8.898173828125E-1, 0., -2.70337409347121E-10));
#173 = IFCCARTESIANPOINT((-1.25158032226563, 0., 7.1E-1));
#174 = IFCFACEOUTERBOUND(#171, .T.);
#175 = IFCFACE((#174));
#176 = IFCPOLYLOOP((#145, #177, #172));
#177 = IFCCARTESIANPOINT((-1.30767651367188, -3.98831268310547E-1, -2.07482486302979E-10));
#178 = IFCFACEOUTERBOUND(#176, .T.);
#179 = IFCFACE((#178));
#180 = IFCPOLYLOOP((#124, #181, #182));
#181 = IFCCARTESIANPOINT((-1.30767651367188, 3.98831268310547E-1, -2.07482486302979E-10));
#182 = IFCCARTESIANPOINT((-1.33224157714844, 3.98831268310547E-1, 4.66471306026506E-15));
#183 = IFCFACEOUTERBOUND(#180, .T.);
#184 = IFCFACE((#183));
#185 = IFCPOLYLOOP((#182, #116, #124));
#186 = IFCFACEOUTERBOUND(#185, .T.);
#187 = IFCFACE((#186));
#188 = IFCPOLYLOOP((#189, #182, #181));
#189 = IFCCARTESIANPOINT((-9.14382751464844E-1, 0., 0.));
#190 = IFCFACEOUTERBOUND(#188, .T.);
#191 = IFCFACE((#190));
#192 = IFCPOLYLOOP((#181, #172, #189));
#193 = IFCFACEOUTERBOUND(#192, .T.);
#194 = IFCFACE((#193));
#195 = IFCPOLYLOOP((#189, #172, #177));
#196 = IFCFACEOUTERBOUND(#195, .T.);
#197 = IFCFACE((#196));
#198 = IFCPOLYLOOP((#177, #199, #189));
#199 = IFCCARTESIANPOINT((-1.33224157714844, -3.98831268310547E-1, 4.66471306026506E-15));
#200 = IFCFACEOUTERBOUND(#198, .T.);
#201 = IFCFACE((#200));
#202 = IFCPOLYLOOP((#199, #177, #145));
#203 = IFCFACEOUTERBOUND(#202, .T.);
#204 = IFCFACE((#203));
#205 = IFCPOLYLOOP((#145, #120, #199));
#206 = IFCFACEOUTERBOUND(#205, .T.);
#207 = IFCFACE((#206));
#208 = IFCPOLYLOOP((#140, #189, #199));
#209 = IFCFACEOUTERBOUND(#208, .T.);
#210 = IFCFACE((#209));
#211 = IFCPOLYLOOP((#199, #120, #140));
#212 = IFCFACEOUTERBOUND(#211, .T.);
#213 = IFCFACE((#212));
#214 = IFCPOLYLOOP((#189, #140, #116));
#215 = IFCFACEOUTERBOUND(#214, .T.);
#216 = IFCFACE((#215));
#217 = IFCPOLYLOOP((#116, #182, #189));
#218 = IFCFACEOUTERBOUND(#217, .T.);
#219 = IFCFACE((#218));
#220 = IFCPOLYLOOP((#181, #124, #173));
#221 = IFCFACEOUTERBOUND(#220, .T.);
#222 = IFCFACE((#221));
#223 = IFCPOLYLOOP((#173, #172, #181));
#224 = IFCFACEOUTERBOUND(#223, .T.);
#225 = IFCFACE((#224));
#226 = IFCPOLYLOOP((#136, #156, #227));
#227 = IFCCARTESIANPOINT((1.27614636230469, 0., 7.1E-1));
#228 = IFCFACEOUTERBOUND(#226, .T.);
#229 = IFCFACE((#228));
#230 = IFCPOLYLOOP((#231, #232, #128));
#231 = IFCCARTESIANPOINT((8.898173828125E-1, 0., -2.70337409347121E-10));
#232 = IFCCARTESIANPOINT((1.25158032226563, 0., 7.1E-1));
#233 = IFCFACEOUTERBOUND(#230, .T.);
#234 = IFCFACE((#233));
#235 = IFCPOLYLOOP((#128, #236, #231));
#236 = IFCCARTESIANPOINT((1.30767651367188, 3.98831268310547E-1, -2.07482486302979E-10));
#237 = IFCFACEOUTERBOUND(#235, .T.);
#238 = IFCFACE((#237));
#239 = IFCPOLYLOOP((#149, #240, #241));
#240 = IFCCARTESIANPOINT((1.30767651367188, -3.98831268310547E-1, -2.07482486302979E-10));
#241 = IFCCARTESIANPOINT((1.33224157714844, -3.98831268310547E-1, 4.66471306026506E-15));
#242 = IFCFACEOUTERBOUND(#239, .T.);
#243 = IFCFACE((#242));
#244 = IFCPOLYLOOP((#241, #156, #149));
#245 = IFCFACEOUTERBOUND(#244, .T.);
#246 = IFCFACE((#245));
#247 = IFCPOLYLOOP((#248, #241, #240));
#248 = IFCCARTESIANPOINT((9.14382751464844E-1, 0., 0.));
#249 = IFCFACEOUTERBOUND(#247, .T.);
#250 = IFCFACE((#249));
#251 = IFCPOLYLOOP((#240, #231, #248));
#252 = IFCFACEOUTERBOUND(#251, .T.);
#253 = IFCFACE((#252));
#254 = IFCPOLYLOOP((#248, #231, #236));
#255 = IFCFACEOUTERBOUND(#254, .T.);
#256 = IFCFACE((#255));
#257 = IFCPOLYLOOP((#236, #258, #248));
#258 = IFCCARTESIANPOINT((1.33224157714844, 3.98831268310547E-1, 4.66471306026506E-15));
#259 = IFCFACEOUTERBOUND(#257, .T.);
#260 = IFCFACE((#259));
#261 = IFCPOLYLOOP((#258, #236, #128));
#262 = IFCFACEOUTERBOUND(#261, .T.);
#263 = IFCFACE((#262));
#264 = IFCPOLYLOOP((#128, #136, #258));
#265 = IFCFACEOUTERBOUND(#264, .T.);
#266 = IFCFACE((#265));
#267 = IFCPOLYLOOP((#227, #248, #258));
#268 = IFCFACEOUTERBOUND(#267, .T.);
#269 = IFCFACE((#268));
#270 = IFCPOLYLOOP((#258, #136, #227));
#271 = IFCFACEOUTERBOUND(#270, .T.);
#272 = IFCFACE((#271));
#273 = IFCPOLYLOOP((#248, #227, #156));
#274 = IFCFACEOUTERBOUND(#273, .T.);
#275 = IFCFACE((#274));
#276 = IFCPOLYLOOP((#156, #241, #248));
#277 = IFCFACEOUTERBOUND(#276, .T.);
#278 = IFCFACE((#277));
#279 = IFCPOLYLOOP((#240, #149, #232));
#280 = IFCFACEOUTERBOUND(#279, .T.);
#281 = IFCFACE((#280));
#282 = IFCPOLYLOOP((#232, #231, #240));
#283 = IFCFACEOUTERBOUND(#282, .T.);
#284 = IFCFACE((#283));
#285 = IFCPOLYLOOP((#149, #145, #173));
#286 = IFCFACEOUTERBOUND(#285, .T.);
#287 = IFCFACE((#286));
#288 = IFCPOLYLOOP((#173, #232, #149));
#289 = IFCFACEOUTERBOUND(#288, .T.);
#290 = IFCFACE((#289));
#291 = IFCPOLYLOOP((#124, #128, #232));
#292 = IFCFACEOUTERBOUND(#291, .T.);
#293 = IFCFACE((#292));
#294 = IFCPOLYLOOP((#232, #173, #124));
#295 = IFCFACEOUTERBOUND(#294, .T.);
#296 = IFCFACE((#295));
#297 = IFCFACETEDBREP(#112);
ENDSEC;
END-ISO-10303-21;
